<?xml version="1.0" standalone="no"?>
<!DOCTYPE svg PUBLIC "-//W3C//DTD SVG 20010904//EN"
 "http://www.w3.org/TR/2001/REC-SVG-20010904/DTD/svg10.dtd">
<svg version="1.0" xmlns="http://www.w3.org/2000/svg"
 width="449.000000pt" height="449.000000pt" viewBox="0 0 449.000000 449.000000"
 preserveAspectRatio="xMidYMid meet">
<metadata>
Created by potrace 1.14, written by Peter Selinger 2001-2017
</metadata>
<g transform="translate(0.000000,449.000000) scale(0.100000,-0.100000)"
fill="#000000" stroke="none">
<path d="M2816 4483 c-1 -1 -29 -4 -62 -7 -34 -3 -72 -7 -85 -10 -13 -4 -44
-8 -69 -11 -112 -12 -390 -92 -560 -162 -123 -50 -307 -145 -429 -220 -94 -58
-298 -197 -311 -212 -3 -3 -39 -33 -80 -66 -75 -60 -311 -290 -386 -375 -151
-173 -323 -419 -391 -560 -7 -14 -17 -32 -23 -40 -5 -8 -29 -55 -51 -105 -143
-310 -210 -606 -203 -890 3 -112 25 -313 43 -397 28 -126 124 -341 222 -498
220 -353 550 -630 928 -780 109 -43 352 -110 400 -110 15 0 31 -3 34 -6 8 -8
30 -10 217 -17 164 -6 276 3 435 34 243 47 539 168 745 304 194 129 420 339
561 522 130 170 294 461 368 653 34 87 94 298 111 385 64 343 74 456 74 800 0
230 -4 333 -17 440 -25 194 -62 378 -103 514 -37 120 -110 291 -125 291 -5 0
-9 5 -9 10 0 6 -12 29 -27 53 -93 146 -266 284 -444 354 -179 72 -367 103
-632 106 -71 1 -130 1 -131 0z"/>
</g>
</svg>
