<?xml version="1.0" standalone="no"?>
<!DOCTYPE svg PUBLIC "-//W3C//DTD SVG 20010904//EN"
 "http://www.w3.org/TR/2001/REC-SVG-20010904/DTD/svg10.dtd">
<svg version="1.0" xmlns="http://www.w3.org/2000/svg"
 width="657.000000pt" height="657.000000pt" viewBox="0 0 657.000000 657.000000"
 preserveAspectRatio="xMidYMid meet">
<metadata>
Created by potrace 1.14, written by Peter Selinger 2001-2017
</metadata>
<g transform="translate(0.000000,657.000000) scale(0.100000,-0.100000)"
fill="#000000" stroke="none">
<path d="M3098 6565 c-2 -1 -43 -5 -93 -9 -49 -3 -101 -8 -115 -10 -14 -3 -45
-7 -70 -10 -25 -3 -55 -8 -66 -10 -12 -2 -37 -7 -55 -10 -192 -30 -522 -130
-709 -213 -523 -233 -890 -514 -1271 -970 -72 -87 -219 -305 -290 -430 -59
-104 -196 -395 -203 -433 -1 -3 -4 -9 -7 -15 -4 -5 -22 -59 -42 -120 -120
-370 -170 -675 -170 -1040 -1 -125 9 -313 18 -365 2 -14 6 -47 9 -75 3 -27 8
-60 10 -71 2 -12 7 -39 10 -60 4 -22 8 -46 11 -54 2 -8 6 -33 10 -55 18 -124
111 -419 192 -610 340 -801 981 -1431 1790 -1759 102 -41 212 -80 223 -79 3 1
13 -3 22 -8 50 -27 421 -109 563 -125 33 -3 69 -8 80 -10 33 -7 254 -17 355
-17 391 1 798 76 1145 211 28 11 75 29 105 41 100 38 363 175 487 254 115 73
301 208 365 266 256 226 374 357 596 660 9 13 24 35 32 50 8 14 18 28 21 31
13 11 120 200 167 296 164 329 267 660 317 1019 35 250 39 518 10 630 -71 278
-309 498 -585 542 -51 8 -197 8 -251 -1 -205 -33 -415 -187 -513 -376 -69
-133 -80 -184 -91 -437 -3 -67 -7 -128 -9 -135 -3 -7 -7 -33 -10 -58 -24 -200
-143 -510 -268 -701 -134 -203 -320 -392 -523 -529 -100 -68 -309 -175 -353
-181 -4 0 -16 -6 -27 -11 -58 -32 -298 -87 -450 -105 -118 -13 -351 -7 -462
13 -351 62 -625 189 -898 414 -59 49 -191 186 -246 255 -198 251 -318 524
-375 855 -24 138 -24 440 0 556 2 12 7 39 10 59 4 21 15 74 26 117 130 509
491 951 966 1184 61 30 117 54 125 54 8 0 19 4 25 9 13 12 164 59 249 77 166
35 265 44 450 40 94 -3 186 -7 205 -11 150 -28 248 -52 334 -82 109 -37 301
-126 363 -169 64 -43 164 -90 238 -110 92 -25 273 -26 365 -1 204 54 378 195
470 382 57 115 74 189 74 325 0 178 -49 321 -156 453 -95 117 -204 192 -483
331 -334 166 -603 251 -985 311 -27 4 -109 14 -175 21 -43 5 -482 13 -487 9z"/>
<path d="M3218 4059 c-37 -4 -82 -11 -100 -15 -18 -4 -35 -8 -38 -9 -52 -10
-195 -79 -250 -119 -128 -96 -226 -230 -278 -381 -29 -85 -33 -116 -36 -233
-10 -391 266 -718 659 -781 328 -52 675 136 813 439 31 69 36 87 61 190 10 44
9 254 -2 295 -67 258 -217 445 -441 549 -62 29 -166 56 -236 62 -36 3 -69 7
-75 8 -5 1 -40 -1 -77 -5z"/>
</g>
</svg>
