<?xml version="1.0" standalone="no"?>
<!DOCTYPE svg PUBLIC "-//W3C//DTD SVG 20010904//EN"
 "http://www.w3.org/TR/2001/REC-SVG-20010904/DTD/svg10.dtd">
<svg version="1.0" xmlns="http://www.w3.org/2000/svg"
 width="381.000000pt" height="164.000000pt" viewBox="0 0 381.000000 164.000000"
 preserveAspectRatio="xMidYMid meet">
<metadata>
Created by potrace 1.16, written by Peter Selinger 2001-2019
</metadata>
<g transform="translate(0.000000,164.000000) scale(0.100000,-0.100000)"
fill="#000000" stroke="none">
<path d="M625 1620 c-254 -67 -439 -219 -550 -451 -60 -127 -78 -220 -73 -378
4 -120 8 -147 36 -230 94 -275 307 -470 591 -542 71 -18 105 -21 220 -17 120
4 147 8 230 36 51 18 123 50 160 71 l66 39 27 -19 c51 -37 173 -89 257 -110
71 -18 105 -21 220 -17 120 4 147 8 230 36 275 94 470 307 542 591 18 71 21
105 17 220 -4 120 -8 147 -36 230 -94 275 -307 470 -591 542 -71 18 -105 21
-220 17 -120 -4 -147 -8 -230 -36 -51 -18 -123 -50 -160 -71 l-66 -39 -27 19
c-49 36 -172 89 -252 109 -105 27 -291 27 -391 0z m735 -190 c66 -55 152 -170
194 -260 56 -118 78 -216 78 -350 0 -188 -55 -348 -169 -497 -56 -74 -141
-153 -163 -153 -22 0 -107 79 -163 153 -187 243 -222 562 -94 841 17 39 54
100 80 136 53 72 154 170 176 170 7 0 35 -18 61 -40z"/>
<path d="M3625 1621 c-304 -77 -528 -303 -606 -610 -18 -71 -21 -105 -17 -220
4 -120 8 -147 36 -230 76 -221 223 -386 433 -486 90 -42 214 -75 286 -75 l53
0 0 820 0 820 -57 -1 c-32 0 -89 -8 -128 -18z"/>
</g>
</svg>
